<svg width="689" height="854" viewBox="0 0 689 854" fill="none" xmlns="http://www.w3.org/2000/svg">
<path fill-rule="evenodd" clip-rule="evenodd" d="M167.269 530.239C164.305 589.885 142.233 637.152 117.971 635.813C93.7095 634.474 76.4447 585.037 79.4093 525.392C82.0887 498.903 88.0403 474.698 95.7661 456.166C90.1995 454.098 80.3918 446.458 71.9731 439.899L71.9731 439.899C65.6698 434.989 60.1452 430.685 57.7622 429.781L48.8847 527.525L28.0312 680.116C28.8571 697.316 38.6988 712.996 53.9086 721.078L293.343 847.696C301.12 851.772 309.653 853.637 318.187 853.292C326.653 852.877 334.98 850.252 342.413 845.486L569.528 697.869C584.049 688.474 592.376 672.103 591.688 654.765L573.312 598.191C550.618 595.863 509.999 577.192 466.094 557.011C418.793 535.269 367.678 511.774 331.057 505.075L318.187 786.771L305.249 498.236L303.528 497.408C302.565 497.251 298.067 496.224 292.067 494.855C285.612 493.382 277.42 491.513 270.022 489.903C280.946 510.688 287.044 542.024 285.32 576.689C282.306 637.344 256.49 685.224 227.66 683.633C198.829 682.043 177.901 631.583 180.916 570.929C186.069 526.314 194.975 496.892 207.192 480.389L163.11 471.019C166.749 488.191 168.348 508.54 167.269 530.239Z" fill="white"/>
<path d="M260.448 501.414C260.449 501.414 260.447 501.414 260.448 501.414C260.435 501.512 260.42 501.61 260.407 501.708C257.03 527.295 238.459 545.048 218.855 541.503C238.41 545.404 251.499 569.175 248.122 594.759L248.111 594.844L248.116 594.844L248.127 594.762C251.509 569.139 270.127 551.372 289.761 554.982C270.159 551.134 257.025 527.331 260.407 501.708C260.42 501.61 260.435 501.512 260.448 501.414Z" fill="white"/>
<path d="M290.1 555.047C290.229 555.07 290.357 555.093 290.485 555.115L290.483 555.124C290.355 555.098 290.228 555.072 290.1 555.047Z" fill="white"/>
<path d="M147.07 476.516C147.071 476.516 147.069 476.516 147.07 476.516C147.06 476.594 147.048 476.672 147.038 476.751C144.395 497.22 129.861 511.423 114.52 508.587C129.823 511.708 140.066 530.724 137.424 551.192L137.415 551.259L137.419 551.26L137.428 551.194C140.074 530.696 154.645 516.482 170.011 519.37C154.67 516.292 144.391 497.249 147.038 476.751C147.048 476.672 147.06 476.594 147.07 476.516Z" fill="white"/>
<path d="M170.276 519.422C170.377 519.441 170.477 519.459 170.578 519.476L170.576 519.484C170.476 519.463 170.376 519.442 170.276 519.422Z" fill="white"/>
<path fill-rule="evenodd" clip-rule="evenodd" d="M546.451 552.757C594.928 567.666 639.376 569.931 686.09 543.006C688.924 541.37 689.175 534.45 685.775 535.142C619.67 547.095 552.809 525.517 519.001 497.397C518.749 497.208 395.794 437.759 342.973 443.547C377.41 434.739 413.988 442.351 448.048 449.775C470.902 455.248 493.126 461.853 515.224 469.465C512.957 423.604 514.846 337.042 515.664 328.171C516.336 321.129 516.993 314.085 517.65 307.039L517.65 307.035C520.01 281.731 522.37 256.422 525.423 231.228C525.699 229.162 526.192 226.395 526.659 223.774L526.66 223.771L526.66 223.77C527.259 220.409 527.815 217.289 527.815 216.193C527.815 190.589 527.186 164.167 516.672 140.388C529.137 159.827 535.622 181.971 539.714 204.744C559.672 209.336 608.212 237.582 648.379 273.818C649.134 274.447 649.89 274.824 650.708 274.95L654.297 274.007C654.548 273.944 654.8 273.818 654.926 273.566L656.689 270.798C656.752 270.232 656.689 269.729 656.563 269.1C648.127 227.077 638.116 185.682 615.452 149.195C593.92 114.406 569.556 81.1273 544.751 48.4775C497.533 -13.425 469.579 -15.1864 414.177 38.2863C390.292 61.2792 340.575 110.245 294.102 156.016L294.095 156.024C253.599 195.908 215.568 233.365 199.24 249.095C198.276 250 178.154 272.393 156.611 296.369C131.829 323.948 105.167 353.62 103.623 355.083C100.624 352.431 96.9752 349.466 93.0211 346.252C83.561 338.562 72.3525 329.451 64.1105 319.824C44.7441 301.987 31.0591 279.803 21.461 263.92C18.3459 257.033 15.3557 250.03 12.4574 242.919C11.6835 241.02 9.34303 236.69 6.96883 236.072C3.56913 234.626 -0.460763 237.331 0.0428958 240.916C4.63879 276.334 26.9887 382.147 117.333 425.177C132.442 432.349 149.504 437.696 168.706 440.842C175.883 441.974 183.375 442.918 191.245 443.358C301.609 449.649 385.784 486.199 457.114 517.339C457.114 517.339 500.114 542.817 546.451 552.757Z" fill="white"/>
</svg>
