<svg width="162" height="60" viewBox="0 0 162 60" fill="none" xmlns="http://www.w3.org/2000/svg">
<g filter="url(#filter0_i_6065_870)">
<path d="M10.5147 58.8702L10.5115 58.8696C6.56671 58.2295 3.98398 56.8998 2.72567 55.2323L2.72571 55.2322L2.71924 55.2238C1.06057 53.0735 0.558525 49.9779 1.40241 46.5085C1.44427 46.3828 1.50454 46.1986 1.57918 45.9706C1.83666 45.1837 2.26508 43.8745 2.69823 42.6435C3.3665 40.9806 3.94787 39.2471 4.11358 38.753L4.11433 38.7507L4.12128 38.73L4.12731 38.709C5.16896 35.0854 5.32377 29.3584 4.73761 24.5267C4.68018 24.0149 4.54658 23.1231 4.41657 22.2553C4.35396 21.8373 4.29219 21.425 4.24016 21.0634C3.90901 18.3475 3.67071 16.1962 3.67071 14.4642C3.67071 14.4101 3.67078 14.3566 3.67085 14.3038C3.67198 13.4305 3.6729 12.7273 3.35563 12.044C2.83818 10.3195 3.81415 7.91291 6.17151 6.44852L6.18058 6.44289L6.18952 6.43706C8.3118 5.05507 11.9674 4.57919 14.7754 5.4089L14.7862 5.41211L14.7971 5.41506C15.6254 5.63958 16.5005 5.99854 17.2482 6.41241C18.0184 6.83881 18.5561 7.26999 18.8028 7.59685L18.8456 7.65362L18.8961 7.70377C18.897 7.70468 18.8986 7.7064 18.901 7.70884C18.9335 7.74273 19.1003 7.91621 19.3108 8.02084C19.4614 8.09566 19.6498 8.1492 19.8657 8.14095C20.0708 8.13311 20.2378 8.07175 20.3557 8.01315C20.5596 7.91184 20.73 7.75857 20.8367 7.66011C20.9579 7.54819 21.107 7.40008 21.2796 7.2285C22.0447 6.54107 22.8019 6.11953 24.2311 5.74569L24.2399 5.74341L24.2485 5.74097C27.84 4.73216 30.9673 4.97675 33.8564 6.4125L33.867 6.41778L33.8778 6.4228C35.1623 7.02359 36.3155 7.85774 37.5002 8.95639C38.9544 10.3262 39.6695 11.4848 40.1092 13.0871L40.1114 13.095L40.1137 13.1029C40.7703 15.3509 40.5064 17.7124 39.1118 20.4891L38.3741 21.8741L37.8681 22.8241L38.8526 23.259L39.5959 23.5873C40.9282 24.1758 43.1306 25.8047 44.5442 27.3659L44.5495 27.3717L44.5548 27.3774C45.0123 27.8671 45.4206 28.284 45.7863 28.6574C47.2229 30.1243 48.0024 30.9202 48.5283 32.8247C48.5803 33.0431 48.6564 33.2801 48.7196 33.4772C48.744 33.5534 48.7665 33.6235 48.785 33.6844C48.8633 33.9422 48.9318 34.2118 48.9695 34.5524C49.0453 35.2366 49.0077 36.3064 48.5284 38.1856C48.1642 39.6136 47.5624 41.0612 46.9793 42.4636C46.9139 42.6208 46.8488 42.7775 46.7842 42.9335C46.4706 43.6916 46.1692 44.4402 45.9468 45.1303C45.7278 45.8098 45.5597 46.5078 45.5597 47.1532C45.5597 47.7862 45.5914 48.4449 45.622 49.0791C45.6283 49.2091 45.6345 49.3382 45.6404 49.4657C45.6757 50.2308 45.7 50.9572 45.667 51.6409C45.6002 53.0276 45.3046 54.0429 44.5958 54.7181L44.5881 54.7254L44.5806 54.7329C42.3074 56.9922 38.6152 57.9609 33.6477 57.9263C30.9027 57.9072 29.0971 57.4089 27.6739 56.888C27.3116 56.7555 26.9718 56.6206 26.6376 56.487C26.6091 56.4756 26.5805 56.4641 26.552 56.4527C26.2505 56.3321 25.9482 56.2111 25.6521 56.1015C25.0031 55.8611 24.3281 55.6532 23.587 55.5788C23.5852 55.5786 23.5833 55.5784 23.5815 55.5783L22.1058 55.4152L21.6303 55.3627L21.2911 55.6999L20.569 56.4176C19.1985 57.6237 17.868 58.348 16.1689 58.7151L16.1644 58.7161C15.5126 58.8601 14.4505 58.9603 13.3386 58.9905C12.2264 59.0206 11.1648 58.9779 10.5147 58.8702ZM28.8828 44.91L29.0279 44.8379L29.1427 44.7237C29.1848 44.6819 29.2617 44.6152 29.391 44.503C29.42 44.4778 29.4517 44.4502 29.4863 44.4202C29.6528 44.2754 29.8605 44.0924 30.0512 43.9029L30.0698 43.8843L30.0875 43.8648C31.015 42.8406 31.4199 41.6903 31.4199 40.2386C31.4199 39.7904 31.4038 39.4114 31.3065 39.0827C31.2039 38.7358 31.0231 38.4998 30.9155 38.3593C30.9056 38.3464 30.8963 38.3342 30.8878 38.3229L30.8449 38.2661L30.7945 38.216C30.1315 37.557 29.1416 37.1044 28.19 37.1044C27.9132 37.1044 27.5892 37.1219 27.2725 37.2649C26.9866 37.3941 26.7843 37.5977 26.6824 37.7003C26.674 37.7087 26.6662 37.7165 26.6592 37.7235L26.5889 37.7934L26.5337 37.8757C26.2922 38.2358 26.2435 38.6129 26.2211 39.0249C26.199 39.4319 26.199 40.0685 26.199 41.086V41.1415C26.199 42.1292 26.2192 42.7894 26.2662 43.245C26.3095 43.6644 26.3848 44.0337 26.5819 44.3539C26.7858 44.7256 27.1377 45.0382 27.6352 45.1309C28.0999 45.2175 28.5375 45.0816 28.8828 44.91ZM24.6196 21.4863L24.6351 21.5251L24.6539 21.5624C24.8003 21.8533 25.0477 22.0935 25.3783 22.2174C25.6908 22.3345 25.9974 22.3184 26.2421 22.2605C26.7124 22.1492 27.1383 21.8444 27.491 21.4939C27.8917 21.0956 28.2395 20.533 28.4924 20.0075C28.7418 19.4892 28.9555 18.889 29.0168 18.3672C29.2464 16.7208 28.2772 15.3949 26.9608 14.9191L26.9481 14.9146L26.9354 14.9103C26.1505 14.6503 25.0357 14.8155 24.5713 15.7385C24.4893 15.9016 24.461 16.0654 24.4514 16.121L24.4511 16.1226C24.4363 16.2086 24.4259 16.3002 24.4181 16.3872C24.4022 16.563 24.3918 16.778 24.3851 17.0093C24.3716 17.4752 24.3717 18.0588 24.3822 18.6378C24.3927 19.2172 24.4138 19.8046 24.4434 20.2787C24.4581 20.5146 24.4755 20.7323 24.496 20.9112C24.5106 21.0376 24.5396 21.2876 24.6196 21.4863Z" fill="#7FFF30" stroke="black" stroke-width="2"/>
<path d="M118.62 58.8702L118.617 58.8697C114.659 58.2294 112.067 56.8992 110.804 55.2312L110.804 55.2311L110.798 55.2227C109.991 54.1794 109.388 52.4623 109.133 50.7081C109.007 49.8449 108.971 49.0114 109.024 48.2953C109.078 47.5624 109.221 47.0277 109.394 46.7083C109.868 45.8362 110.234 45.4883 110.657 45.2106C110.898 45.0517 111.171 44.9083 111.551 44.7092L111.551 44.7091C111.92 44.516 112.362 44.2844 112.882 43.9707C114.571 42.976 115.382 41.7383 115.772 40.6386C115.963 40.1011 116.045 39.6178 116.091 39.2532C116.106 39.1376 116.119 39.015 116.129 38.9215C116.133 38.8801 116.137 38.8444 116.14 38.8176C116.148 38.7548 116.152 38.7242 116.154 38.7149L116.155 38.7099C117.2 35.0859 117.356 29.3584 116.768 24.5265C116.71 24.0147 116.576 23.1227 116.445 22.2548C116.383 21.8369 116.321 21.4247 116.269 21.0631C115.936 18.3472 115.697 16.1961 115.697 14.4643C115.697 14.4101 115.697 14.3567 115.698 14.3038C115.699 13.4307 115.7 12.7269 115.381 12.0432C114.863 10.3208 115.84 7.91458 118.206 6.44934L118.215 6.44373L118.224 6.43793C120.354 5.05517 124.023 4.57906 126.841 5.40924L126.852 5.41242L126.863 5.41536C127.694 5.64 128.572 5.99912 129.322 6.41313C130.095 6.8397 130.635 7.2711 130.883 7.59813L130.926 7.65486L130.976 7.70495C130.977 7.70588 130.979 7.70762 130.981 7.71009C131.014 7.74418 131.181 7.91719 131.391 8.02148C131.542 8.09603 131.73 8.14926 131.945 8.14105C132.15 8.13325 132.317 8.07221 132.435 8.01379C132.638 7.91275 132.809 7.75977 132.916 7.66125C133.038 7.54935 133.187 7.40126 133.361 7.22965C134.128 6.54191 134.888 6.12002 136.323 5.74597L136.332 5.74371L136.34 5.74129C139.944 4.73212 143.083 4.97678 145.982 6.41315L145.992 6.4184L146.003 6.4234C147.292 7.02443 148.449 7.85883 149.638 8.95756C151.097 10.3276 151.814 11.4862 152.255 13.088L152.257 13.0959L152.259 13.1038C152.918 15.351 152.653 17.7116 151.254 20.4881L150.514 21.8731L150.006 22.8247L150.993 23.2595L151.739 23.5879C153.076 24.1767 155.285 25.8059 156.703 27.3672L156.709 27.3729L156.714 27.3786C158.751 29.552 159.995 31.8645 160.699 34.411C160.822 34.9381 160.889 35.2272 160.933 35.6439C160.979 36.0803 161 36.6713 161 37.7762C161 40.3482 160.921 41.0778 160.453 42.857L160.452 42.8596C159.839 45.2156 158.614 47.2702 156.755 49.0353L156.747 49.0426L156.74 49.0501C154.346 51.4221 150.56 53.3293 145.519 54.6187C142.286 55.419 138.02 55.8097 135.677 55.5788C135.676 55.5787 135.674 55.5785 135.672 55.5783L134.192 55.4153L133.717 55.3631L133.378 55.6989L132.654 56.4167C131.279 57.6229 129.944 58.3477 128.239 58.7151L128.234 58.716C127.952 58.7782 127.312 58.8424 126.412 58.893C125.54 58.9421 124.491 58.9751 123.438 58.9903C121.287 59.0215 119.259 58.9758 118.62 58.8702ZM140.988 44.9106L141.133 44.8388L141.248 44.7249C141.29 44.6831 141.367 44.6162 141.497 44.5041C141.526 44.4788 141.558 44.4513 141.593 44.4213C141.76 44.2765 141.968 44.0936 142.159 43.9041L142.178 43.8856L142.195 43.8661C143.126 42.8419 143.532 41.6912 143.532 40.2387C143.532 39.7905 143.516 39.4111 143.418 39.082C143.315 38.7348 143.134 38.4986 143.026 38.3582C143.016 38.3453 143.007 38.3331 142.998 38.3218L142.955 38.2651L142.905 38.215C142.24 37.5563 141.248 37.1045 140.295 37.1045C140.018 37.1045 139.694 37.1219 139.377 37.2645C139.091 37.3934 138.889 37.5966 138.786 37.6993C138.778 37.7077 138.77 37.7155 138.763 37.7225L138.693 37.7923L138.637 37.8746C138.395 38.2349 138.346 38.6126 138.324 39.0248C138.301 39.4319 138.301 40.0685 138.301 41.0858V41.1416C138.301 42.1293 138.322 42.7897 138.369 43.2454C138.412 43.6651 138.488 44.0347 138.686 44.3551C138.89 44.7272 139.243 45.0388 139.74 45.1311C140.204 45.2174 140.642 45.0821 140.988 44.9106ZM136.717 21.4874L136.733 21.5262L136.752 21.5636C136.899 21.8549 137.147 22.0945 137.477 22.2179C137.789 22.3345 138.096 22.3185 138.34 22.2608C138.811 22.1498 139.237 21.8457 139.591 21.4951C139.993 21.0969 140.342 20.5343 140.595 20.0087C140.846 19.4903 141.06 18.8899 141.122 18.3676C141.352 16.719 140.378 15.3938 139.06 14.9189L139.048 14.9144L139.035 14.9102C138.25 14.651 137.135 14.8148 136.669 15.7375C136.587 15.9008 136.558 16.065 136.548 16.1206L136.548 16.1222C136.533 16.2083 136.523 16.3 136.515 16.387C136.499 16.5629 136.489 16.778 136.482 17.0093C136.468 17.4752 136.468 18.0589 136.479 18.638C136.49 19.2174 136.511 19.8048 136.54 20.279C136.555 20.5149 136.573 20.7327 136.593 20.9116C136.608 21.038 136.637 21.2883 136.717 21.4874Z" fill="#7FFF30" stroke="black" stroke-width="2"/>
<path d="M57.4452 58.8821L57.4209 58.8776L57.3965 58.8743C55.7527 58.6529 54.6509 58.1496 53.428 57.3208C51.3025 55.7736 50.1093 52.9506 50.1093 48.7694C50.1093 47.6566 50.1491 46.9165 50.3863 45.8665C50.6316 44.781 51.0906 43.3535 51.9655 40.8841L51.9655 40.8841L51.9681 40.8769C53.1259 37.5272 53.7519 35.6575 54.0687 34.233C54.3981 32.7519 54.3943 31.7464 54.3522 30.1673H54.3523L54.3519 30.1565C54.3458 29.9949 54.3411 29.8467 54.3367 29.7076C54.3115 28.9137 54.2958 28.4189 54.0919 27.4503C53.8767 26.4279 53.4413 24.8149 52.5424 21.4855C52.4975 21.3195 52.4516 21.1491 52.4044 20.9744L52.4044 20.9743L52.4024 20.9672C51.818 18.8642 51.3588 17.2959 51.0042 16.098C50.9372 15.8717 50.8742 15.6595 50.815 15.4601C50.5586 14.5964 50.3734 13.9721 50.2419 13.4795C50.0807 12.8755 50.0189 12.5344 50.0038 12.2561C49.9893 11.9881 50.0151 11.732 50.0942 11.283L50.0984 11.2592L50.1014 11.2352C50.3172 9.52939 51.1853 7.90812 52.5839 6.36973C54.2362 4.66798 56.4492 3.50587 60.075 2.63009C62.0911 2.15214 63.0947 2 65.2504 2C66.2004 2 66.7156 2.02086 67.1148 2.06568C67.5021 2.10915 67.7981 2.17653 68.3349 2.29892C71.8742 3.273 74.4465 5.83322 75.34 9.84747C75.4042 10.1358 75.4322 10.2633 75.4444 10.3202C75.4461 10.3285 75.4474 10.3346 75.4483 10.3388C75.4487 10.341 75.4491 10.3433 75.4495 10.3455C75.4578 10.3932 75.4851 10.5139 75.6489 11.2367C75.6458 13.0584 75.5676 13.6649 75.4146 14.6485C75.2508 15.4708 75.198 16.439 75.1457 17.3967C75.1276 17.7299 75.1095 18.0617 75.0868 18.3857C74.994 19.7118 74.8238 21.0726 74.3317 22.4199C72.7535 26.6867 72.1104 28.4886 71.5115 31.3597C71.2614 32.4708 70.9769 33.5191 70.6973 34.5494C70.5109 35.2365 70.3266 35.9156 70.1561 36.5999C69.7509 38.2266 69.4359 39.8438 69.5805 41.2282C69.7135 42.5405 70.002 43.7521 70.3749 44.7681C70.7421 45.7682 71.2143 46.642 71.753 47.2274L71.7692 47.2449L71.7861 47.2616C72.3061 47.7753 73.0581 47.9388 73.7935 47.9508C74.5562 47.9631 75.4866 47.8166 76.5736 47.5165C77.2865 47.3337 77.8752 47.1566 78.4095 46.9959C79.6798 46.6137 80.6428 46.324 82.2377 46.2697L82.2389 46.2696C83.2983 46.2322 85.0812 46.4341 86.9141 46.7138C88.705 46.9872 90.4584 47.3209 91.449 47.5243C94.0771 48.2163 95.6965 49.3915 96.6086 51.1936C96.8679 51.7059 96.9334 51.8665 96.9638 51.9969C96.9944 52.1276 97 52.2651 97 52.7968C97 53.3249 96.9612 53.6492 96.8748 53.9408C96.7869 54.2374 96.632 54.5605 96.3192 55.0626L96.3166 55.0668C95.7478 55.9899 95.36 56.4904 94.919 56.8547C94.4848 57.2134 93.9334 57.494 92.9422 57.8476C92.3024 58.0449 91.9918 58.127 91.5682 58.1868C91.1306 58.2486 90.5752 58.2863 89.4827 58.3607L89.2791 58.3745L89.275 58.3748C85.924 58.617 78.143 58.4521 74.3269 57.8121L74.3165 57.8101C73.6539 57.6874 73.2382 57.6104 72.514 57.6223C71.8531 57.6332 70.9076 57.7181 69.1504 57.876L69.0788 57.8824C69.0775 57.8825 69.0763 57.8826 69.0751 57.8827C67.0535 58.0493 64.374 58.3804 63.1229 58.5451L63.1047 58.5476L63.0866 58.5506C60.1952 59.0403 58.5941 59.0949 57.4452 58.8821Z" fill="#7FFF30" stroke="black" stroke-width="2"/>
<path d="M93.6846 42.897L93.6611 42.8933L93.6374 42.8908C90.6688 42.5768 87.1834 41.6297 84.838 40.5442C83.7103 40.0223 81.9601 38.8687 81.0488 38.106C80.5178 37.6112 80.3125 37.2622 79.8481 36.4727C79.8241 36.4318 79.7993 36.3896 79.7737 36.3463C79.4066 35.6262 79.215 35.1374 79.1107 34.6145C79.0029 34.0739 78.9768 33.439 79.0197 32.4079L79.0198 32.4049C79.1018 30.2777 79.4167 28.8461 80.6238 25.574L80.6245 25.5721C81.4548 23.3068 81.952 21.774 82.1439 20.3974C82.341 18.984 82.2102 17.7859 81.8958 16.2033C81.7223 15.1983 81.6477 14.618 81.6384 14.1652C81.6298 13.7401 81.6782 13.4024 81.7991 12.88L81.8022 12.8665L81.805 12.853C82.0183 11.7998 82.5917 10.8338 83.542 9.87908C85.3796 8.10715 87.8903 6.88443 91.4061 6.34204L91.4061 6.34213L91.4196 6.33987C93.2548 6.031 95.7088 5.95048 97.2298 6.02696C101.634 6.42807 103.937 7.13711 105.72 8.50057L105.73 8.50843L105.74 8.51602C106.663 9.18463 107.177 9.77014 107.487 10.4519C107.806 11.1535 107.956 12.0614 107.956 13.4656C107.956 14.627 108 15.4721 108.237 16.4408C108.467 17.3827 108.871 18.4062 109.526 19.9418L109.529 19.9489L109.532 19.956C111.338 24.014 111.822 26.0039 111.989 28.7666C112.149 32.684 110.605 36.3673 107.674 39.0049L107.663 39.0144L107.653 39.0242C104.901 41.6465 101.486 42.8882 96.4961 42.9665L96.4684 42.967L96.4408 42.9689C95.3717 43.045 94.1323 42.966 93.6846 42.897ZM94.738 31.0655L95.072 30.9882L95.072 30.9882L95.0721 30.9882L95.0721 30.9882L95.0722 30.9882L95.0723 30.9881L95.0745 30.9876L95.0846 30.9853L95.1264 30.9759C95.1634 30.9677 95.2178 30.9557 95.2856 30.9412C95.4195 30.9126 95.6037 30.8747 95.8078 30.8368C96.6967 30.6898 97.5693 30.3311 98.2902 29.8544C98.998 29.3864 99.6509 28.7432 99.974 27.9704C100.242 27.3448 100.278 26.6223 100.187 25.9301C100.095 25.2244 99.864 24.4765 99.521 23.7499C98.7666 22.1202 98.5367 21.3192 98.3795 20.3087C98.2961 19.5771 98.2218 19.0021 98.0727 18.5605C97.8889 18.016 97.5998 17.6816 97.2223 17.3881C96.0859 16.463 94.3671 16.4099 93.1443 16.9243L93.1124 16.9378L93.0815 16.9534C92.5805 17.2063 92.0384 17.5161 91.7298 18.1691C91.475 18.7082 91.4347 19.3967 91.3943 20.1446C91.3145 21.6233 91.086 22.4679 90.6327 23.4584C90.4495 23.7608 90.3021 24.0538 90.2067 24.3774C90.1041 24.7258 90.0783 25.0533 90.0783 25.3901C90.0783 28.0241 91.6138 30.252 94.1815 30.808L94.3171 30.8707L94.3966 30.9075L94.4188 30.9178L94.4247 30.9205L94.4262 30.9212L94.4266 30.9214L94.4267 30.9214L94.4267 30.9214L94.8467 30.0139L94.4267 30.9214L94.738 31.0655Z" fill="#7FFF30" stroke="black" stroke-width="2"/>
</g>
<defs>
<filter id="filter0_i_6065_870" x="0" y="0" width="164" height="63.9" filterUnits="userSpaceOnUse" color-interpolation-filters="sRGB">
<feFlood flood-opacity="0" result="BackgroundImageFix"/>
<feBlend mode="normal" in="SourceGraphic" in2="BackgroundImageFix" result="shape"/>
<feColorMatrix in="SourceAlpha" type="matrix" values="0 0 0 0 0 0 0 0 0 0 0 0 0 0 0 0 0 0 127 0" result="hardAlpha"/>
<feOffset dx="2" dy="4"/>
<feGaussianBlur stdDeviation="1.95"/>
<feComposite in2="hardAlpha" operator="arithmetic" k2="-1" k3="1"/>
<feColorMatrix type="matrix" values="0 0 0 0 0 0 0 0 0 0 0 0 0 0 0 0 0 0 0.25 0"/>
<feBlend mode="normal" in2="shape" result="effect1_innerShadow_6065_870"/>
</filter>
</defs>
</svg>
